<svg xmlns="http://www.w3.org/2000/svg" xmlns:xlink="http://www.w3.org/1999/xlink" width="2000" zoomAndPan="magnify" viewBox="0 0 1500 1499.999933" height="2000" preserveAspectRatio="xMidYMid meet" version="1.0"><defs><g/><clipPath id="ea2d672cb2"><path d="M 1071 660 L 1155 660 L 1155 746 L 1071 746 Z M 1071 660 " clip-rule="nonzero"/></clipPath><clipPath id="7c80387643"><path d="M 1054.109375 673.820312 L 1113.59375 618.839844 L 1195.550781 707.515625 L 1136.066406 762.496094 Z M 1054.109375 673.820312 " clip-rule="nonzero"/></clipPath><clipPath id="a253ae98ac"><path d="M 1054.109375 673.820312 L 1113.59375 618.839844 L 1195.550781 707.515625 L 1136.066406 762.496094 Z M 1054.109375 673.820312 " clip-rule="nonzero"/></clipPath><clipPath id="4da2b9b1dc"><path d="M 1114 621 L 1198 621 L 1198 706 L 1114 706 Z M 1114 621 " clip-rule="nonzero"/></clipPath><clipPath id="cb5f61875e"><path d="M 1096.789062 634.371094 L 1156.273438 579.390625 L 1238.234375 668.066406 L 1178.75 723.042969 Z M 1096.789062 634.371094 " clip-rule="nonzero"/></clipPath><clipPath id="2c01265a61"><path d="M 1096.789062 634.371094 L 1156.273438 579.390625 L 1238.234375 668.066406 L 1178.75 723.042969 Z M 1096.789062 634.371094 " clip-rule="nonzero"/></clipPath><clipPath id="0f39ffb67b"><rect x="0" width="608" y="0" height="260"/></clipPath><clipPath id="ad6214e023"><rect x="0" width="521" y="0" height="98"/></clipPath></defs><rect x="-150" width="1800" fill="#ffffff" y="-149.999993" height="1799.99992" fill-opacity="1"/><rect x="-150" width="1800" fill="#ffffff" y="-149.999993" height="1799.99992" fill-opacity="1"/><g clip-path="url(#ea2d672cb2)"><g clip-path="url(#7c80387643)"><g clip-path="url(#a253ae98ac)"><path fill="#18cb96" d="M 1154.957031 663.976562 L 1082.839844 660.769531 C 1068.910156 660.152344 1066.558594 687.285156 1083.0625 687.734375 L 1127.9375 688.949219 L 1124.507812 734.101562 C 1123.464844 747.851562 1150.28125 749.304688 1151.046875 735.332031 Z M 1154.957031 663.976562 " fill-opacity="1" fill-rule="nonzero"/></g></g></g><g clip-path="url(#4da2b9b1dc)"><g clip-path="url(#cb5f61875e)"><g clip-path="url(#2c01265a61)"><path fill="#18cb96" d="M 1197.636719 624.523438 L 1125.519531 621.320312 C 1111.589844 620.699219 1109.238281 647.835938 1125.742188 648.28125 L 1170.617188 649.5 L 1167.191406 694.652344 C 1166.148438 708.402344 1192.964844 709.855469 1193.730469 695.882812 Z M 1197.636719 624.523438 " fill-opacity="1" fill-rule="nonzero"/></g></g></g><g transform="matrix(1, 0, 0, 1, 441, 615)"><g clip-path="url(#0f39ffb67b)"><g fill="#373643" fill-opacity="1"><g transform="translate(2.945491, 204.382474)"><g><path d="M 122.546875 -19.109375 C 125.265625 -15.816406 126.625 -12.878906 126.625 -10.296875 C 126.625 -7.296875 125.441406 -4.828125 123.078125 -2.890625 C 120.722656 -0.960938 117.898438 0 114.609375 0 C 112.890625 0 111.171875 -0.285156 109.453125 -0.859375 C 107.742188 -1.429688 106.097656 -2.503906 104.515625 -4.078125 L 53.234375 -59.015625 L 37.125 -44.859375 L 37.125 -11.15625 C 37.125 -7.582031 35.800781 -4.828125 33.15625 -2.890625 C 30.507812 -0.960938 27.613281 0 24.46875 0 C 21.320312 0 18.492188 -0.960938 15.984375 -2.890625 C 13.484375 -4.828125 12.234375 -7.582031 12.234375 -11.15625 L 12.234375 -125.765625 C 12.234375 -129.484375 13.484375 -132.238281 15.984375 -134.03125 C 18.492188 -135.820312 21.320312 -136.71875 24.46875 -136.71875 C 27.613281 -136.71875 30.507812 -135.820312 33.15625 -134.03125 C 35.800781 -132.238281 37.125 -129.484375 37.125 -125.765625 L 37.125 -74.46875 L 103.453125 -133.28125 C 106.171875 -135.570312 109.175781 -136.71875 112.46875 -136.71875 C 115.894531 -136.71875 118.820312 -135.570312 121.25 -133.28125 C 123.6875 -130.988281 124.90625 -128.414062 124.90625 -125.5625 C 124.90625 -122.550781 123.476562 -119.757812 120.625 -117.1875 L 70.828125 -74.046875 Z M 122.546875 -19.109375 "/></g></g></g><g fill="#373643" fill-opacity="1"><g transform="translate(129.344966, 204.382474)"><g><path d="M 99.796875 -109.25 C 103.515625 -109.25 106.484375 -108.207031 108.703125 -106.125 C 110.921875 -104.050781 112.03125 -101.367188 112.03125 -98.078125 L 112.03125 -11.15625 C 112.03125 -7.863281 110.921875 -5.179688 108.703125 -3.109375 C 106.484375 -1.035156 103.515625 0 99.796875 0 C 96.222656 0 93.429688 -0.820312 91.421875 -2.46875 C 89.421875 -4.113281 88.207031 -6.296875 87.78125 -9.015625 C 82.914062 -5.148438 77.476562 -2.320312 71.46875 -0.53125 C 65.457031 1.25 59.734375 2.140625 54.296875 2.140625 C 43.992188 2.140625 35.085938 -0.21875 27.578125 -4.9375 C 20.066406 -9.65625 14.304688 -16.304688 10.296875 -24.890625 C 6.296875 -33.484375 4.296875 -43.5 4.296875 -54.9375 C 4.296875 -66.101562 6.507812 -75.90625 10.9375 -84.34375 C 15.375 -92.789062 21.5625 -99.410156 29.5 -104.203125 C 37.445312 -108.992188 46.644531 -111.390625 57.09375 -111.390625 C 61.664062 -111.390625 66.742188 -110.53125 72.328125 -108.8125 C 77.910156 -107.09375 83.0625 -104.375 87.78125 -100.65625 C 88.351562 -103.226562 89.640625 -105.300781 91.640625 -106.875 C 93.648438 -108.457031 96.367188 -109.25 99.796875 -109.25 Z M 56.875 -19.53125 C 63.164062 -19.53125 69.242188 -20.925781 75.109375 -23.71875 C 80.984375 -26.507812 85.132812 -30.625 87.5625 -36.0625 L 87.5625 -73.1875 C 84.84375 -78.476562 80.765625 -82.554688 75.328125 -85.421875 C 69.890625 -88.285156 64.382812 -89.71875 58.8125 -89.71875 C 49.789062 -89.71875 42.523438 -86.425781 37.015625 -79.84375 C 31.515625 -73.257812 28.765625 -64.890625 28.765625 -54.734375 C 28.765625 -44.140625 31.335938 -35.625 36.484375 -29.1875 C 41.640625 -22.75 48.4375 -19.53125 56.875 -19.53125 Z M 56.875 -19.53125 "/></g></g></g><g fill="#373643" fill-opacity="1"><g transform="translate(253.383831, 204.382474)"><g><path d="M 57.953125 -109.25 C 61.816406 -109.25 64.890625 -108.425781 67.171875 -106.78125 C 69.460938 -105.132812 70.609375 -102.453125 70.609375 -98.734375 C 70.609375 -95.296875 69.460938 -92.570312 67.171875 -90.5625 C 64.890625 -88.5625 61.816406 -87.5625 57.953125 -87.5625 C 48.929688 -87.5625 42.597656 -84.34375 38.953125 -77.90625 C 35.304688 -71.46875 33.484375 -62.738281 33.484375 -51.71875 L 33.484375 -10.953125 C 33.484375 -7.796875 32.335938 -5.179688 30.046875 -3.109375 C 27.753906 -1.035156 24.960938 0 21.671875 0 C 17.953125 0 14.945312 -1.035156 12.65625 -3.109375 C 10.375 -5.179688 9.234375 -7.796875 9.234375 -10.953125 L 9.234375 -98.296875 C 9.234375 -101.734375 10.554688 -104.414062 13.203125 -106.34375 C 15.847656 -108.28125 18.671875 -109.25 21.671875 -109.25 C 24.679688 -109.25 27.398438 -108.316406 29.828125 -106.453125 C 32.265625 -104.585938 33.484375 -101.867188 33.484375 -98.296875 L 33.484375 -97.015625 C 36.628906 -101.160156 40.273438 -104.234375 44.421875 -106.234375 C 48.578125 -108.242188 53.085938 -109.25 57.953125 -109.25 Z M 57.953125 -109.25 "/></g></g></g><g fill="#373643" fill-opacity="1"><g transform="translate(317.548353, 204.382474)"><g><path d="M 32.1875 -125.34375 C 32.1875 -121.757812 30.863281 -119.070312 28.21875 -117.28125 C 25.570312 -115.5 22.75 -114.609375 19.75 -114.609375 C 16.601562 -114.609375 13.738281 -115.5 11.15625 -117.28125 C 8.582031 -119.070312 7.296875 -121.757812 7.296875 -125.34375 L 7.296875 -128.125 C 7.296875 -131.851562 8.582031 -134.570312 11.15625 -136.28125 C 13.738281 -138 16.601562 -138.859375 19.75 -138.859375 C 22.75 -138.859375 25.570312 -138 28.21875 -136.28125 C 30.863281 -134.570312 32.1875 -131.851562 32.1875 -128.125 Z M 7.515625 -98.734375 C 7.515625 -102.160156 8.835938 -104.769531 11.484375 -106.5625 C 14.128906 -108.351562 16.882812 -109.25 19.75 -109.25 C 22.75 -109.25 25.535156 -108.351562 28.109375 -106.5625 C 30.691406 -104.769531 31.984375 -102.226562 31.984375 -98.9375 L 31.984375 -10.515625 C 31.984375 -6.941406 30.691406 -4.296875 28.109375 -2.578125 C 25.535156 -0.859375 22.75 0 19.75 0 C 16.882812 0 14.128906 -0.859375 11.484375 -2.578125 C 8.835938 -4.296875 7.515625 -6.941406 7.515625 -10.515625 Z M 7.515625 -98.734375 "/></g></g></g><g fill="#373643" fill-opacity="1"><g transform="translate(352.741435, 204.382474)"><g><path d="M 66.109375 -111.390625 C 77.117188 -111.390625 86.453125 -109.0625 94.109375 -104.40625 C 101.765625 -99.757812 107.628906 -93.25 111.703125 -84.875 C 115.785156 -76.507812 117.828125 -66.816406 117.828125 -55.796875 C 117.828125 -44.921875 115.929688 -35.082031 112.140625 -26.28125 C 108.347656 -17.488281 102.910156 -10.550781 95.828125 -5.46875 C 88.742188 -0.394531 80.265625 2.140625 70.390625 2.140625 C 63.816406 2.140625 57.488281 1.035156 51.40625 -1.171875 C 45.320312 -3.390625 39.773438 -6.71875 34.765625 -11.15625 C 34.765625 -3.71875 30.898438 0 23.171875 0 C 19.316406 0 16.28125 -0.960938 14.0625 -2.890625 C 11.84375 -4.828125 10.734375 -7.515625 10.734375 -10.953125 L 10.734375 -128.125 C 10.734375 -131.851562 11.984375 -134.570312 14.484375 -136.28125 C 16.992188 -138 19.820312 -138.859375 22.96875 -138.859375 C 25.96875 -138.859375 28.753906 -138 31.328125 -136.28125 C 33.910156 -134.570312 35.203125 -131.851562 35.203125 -128.125 L 34.984375 -98.296875 C 39.703125 -102.734375 44.78125 -106.023438 50.21875 -108.171875 C 55.65625 -110.316406 60.953125 -111.390625 66.109375 -111.390625 Z M 65.25 -19.75 C 73.6875 -19.75 80.476562 -23.035156 85.625 -29.609375 C 90.78125 -36.191406 93.359375 -44.851562 93.359375 -55.59375 C 93.359375 -65.75 90.601562 -73.9375 85.09375 -80.15625 C 79.582031 -86.382812 72.320312 -89.5 63.3125 -89.5 C 57.59375 -89.5 52.046875 -87.925781 46.671875 -84.78125 C 41.304688 -81.632812 37.410156 -77.125 34.984375 -71.25 L 34.765625 -39.0625 C 36.773438 -32.625 40.640625 -27.796875 46.359375 -24.578125 C 52.078125 -21.359375 58.375 -19.75 65.25 -19.75 Z M 65.25 -19.75 "/></g></g></g><g fill="#373643" fill-opacity="1"><g transform="translate(477.209497, 204.382474)"><g><path d="M 105.375 -109.25 C 109.101562 -109.25 112.109375 -108.101562 114.390625 -105.8125 C 116.679688 -103.519531 117.828125 -100.65625 117.828125 -97.21875 L 117.828125 -10.953125 C 117.828125 -7.367188 116.503906 -4.644531 113.859375 -2.78125 C 111.210938 -0.925781 108.457031 0 105.59375 0 C 102.445312 0 99.617188 -0.960938 97.109375 -2.890625 C 94.609375 -4.828125 93.359375 -7.582031 93.359375 -11.15625 L 93.359375 -12.015625 C 87.492188 -6.296875 81.410156 -2.503906 75.109375 -0.640625 C 68.816406 1.210938 62.953125 2.140625 57.515625 2.140625 C 42.640625 2.140625 31.050781 -2.539062 22.75 -11.90625 C 14.445312 -21.28125 10.296875 -33.976562 10.296875 -50 L 10.296875 -97.21875 C 10.296875 -100.507812 11.367188 -103.335938 13.515625 -105.703125 C 15.660156 -108.066406 18.664062 -109.25 22.53125 -109.25 C 26.25 -109.25 29.21875 -108.066406 31.4375 -105.703125 C 33.65625 -103.335938 34.765625 -100.507812 34.765625 -97.21875 L 34.765625 -49.578125 C 34.765625 -40.273438 36.875 -32.90625 41.09375 -27.46875 C 45.320312 -22.03125 52.015625 -19.3125 61.171875 -19.3125 C 63.890625 -19.3125 67.070312 -20.0625 70.71875 -21.5625 C 74.363281 -23.070312 77.90625 -25.328125 81.34375 -28.328125 C 84.78125 -31.335938 87.640625 -35.164062 89.921875 -39.8125 C 92.210938 -44.457031 93.359375 -49.929688 93.359375 -56.234375 L 93.359375 -97.21875 C 93.359375 -100.65625 94.359375 -103.519531 96.359375 -105.8125 C 98.367188 -108.101562 101.375 -109.25 105.375 -109.25 Z M 105.375 -109.25 "/></g></g></g></g></g><g transform="matrix(1, 0, 0, 1, 488, 830)"><g clip-path="url(#ad6214e023)"><g fill="#373643" fill-opacity="1"><g transform="translate(2.956833, 73.077022)"><g><path d="M 44.5 -33.421875 C 43.144531 -36.972656 40.898438 -39.804688 37.765625 -41.921875 C 34.640625 -44.035156 30.941406 -45.09375 26.671875 -45.09375 C 22.929688 -45.09375 19.550781 -44.210938 16.53125 -42.453125 C 13.519531 -40.703125 11.132812 -38.207031 9.375 -34.96875 C 7.625 -31.726562 6.75 -27.945312 6.75 -23.625 C 6.75 -19.3125 7.625 -15.53125 9.375 -12.28125 C 11.132812 -9.039062 13.519531 -6.554688 16.53125 -4.828125 C 19.550781 -3.097656 22.929688 -2.234375 26.671875 -2.234375 C 30.265625 -2.234375 33.523438 -3.039062 36.453125 -4.65625 C 39.378906 -6.28125 41.71875 -8.585938 43.46875 -11.578125 C 45.226562 -14.566406 46.203125 -18.066406 46.390625 -22.078125 L 25.25 -22.078125 L 25.25 -24.640625 L 49.484375 -24.640625 L 49.484375 -22.625 C 49.347656 -18.207031 48.289062 -14.242188 46.3125 -10.734375 C 44.332031 -7.222656 41.628906 -4.476562 38.203125 -2.5 C 34.785156 -0.519531 30.941406 0.46875 26.671875 0.46875 C 22.304688 0.46875 18.367188 -0.550781 14.859375 -2.59375 C 11.347656 -4.644531 8.597656 -7.503906 6.609375 -11.171875 C 4.628906 -14.835938 3.640625 -18.988281 3.640625 -23.625 C 3.640625 -28.3125 4.628906 -32.488281 6.609375 -36.15625 C 8.597656 -39.820312 11.347656 -42.675781 14.859375 -44.71875 C 18.367188 -46.769531 22.304688 -47.796875 26.671875 -47.796875 C 31.753906 -47.796875 36.148438 -46.523438 39.859375 -43.984375 C 43.578125 -41.441406 46.289062 -37.921875 48 -33.421875 Z M 44.5 -33.421875 "/></g></g></g><g fill="#373643" fill-opacity="1"><g transform="translate(53.522442, 73.077022)"><g><path d="M 8.578125 -29.09375 C 9.472656 -31.800781 11.066406 -33.863281 13.359375 -35.28125 C 15.660156 -36.695312 18.585938 -37.40625 22.140625 -37.40625 L 22.140625 -34.234375 L 21.125 -34.234375 C 17.53125 -34.234375 14.539062 -33.207031 12.15625 -31.15625 C 9.769531 -29.113281 8.578125 -25.769531 8.578125 -21.125 L 8.578125 0 L 5.53125 0 L 5.53125 -36.65625 L 8.578125 -36.65625 Z M 8.578125 -29.09375 "/></g></g></g><g fill="#373643" fill-opacity="1"><g transform="translate(74.585443, 73.077022)"><g><path d="M 21.671875 0.546875 C 18.253906 0.546875 15.171875 -0.21875 12.421875 -1.75 C 9.671875 -3.28125 7.519531 -5.472656 5.96875 -8.328125 C 4.414062 -11.191406 3.640625 -14.535156 3.640625 -18.359375 C 3.640625 -22.140625 4.425781 -25.457031 6 -28.3125 C 7.582031 -31.175781 9.753906 -33.363281 12.515625 -34.875 C 15.285156 -36.382812 18.382812 -37.140625 21.8125 -37.140625 C 25.226562 -37.140625 28.304688 -36.382812 31.046875 -34.875 C 33.796875 -33.363281 35.945312 -31.191406 37.5 -28.359375 C 39.050781 -25.523438 39.828125 -22.191406 39.828125 -18.359375 C 39.828125 -14.535156 39.039062 -11.191406 37.46875 -8.328125 C 35.894531 -5.472656 33.722656 -3.28125 30.953125 -1.75 C 28.179688 -0.21875 25.085938 0.546875 21.671875 0.546875 Z M 21.671875 -2.15625 C 24.328125 -2.15625 26.8125 -2.75 29.125 -3.9375 C 31.445312 -5.132812 33.304688 -6.945312 34.703125 -9.375 C 36.097656 -11.8125 36.796875 -14.804688 36.796875 -18.359375 C 36.796875 -21.867188 36.097656 -24.835938 34.703125 -27.265625 C 33.304688 -29.703125 31.457031 -31.515625 29.15625 -32.703125 C 26.863281 -33.898438 24.390625 -34.5 21.734375 -34.5 C 19.078125 -34.5 16.613281 -33.898438 14.34375 -32.703125 C 12.070312 -31.515625 10.238281 -29.703125 8.84375 -27.265625 C 7.445312 -24.835938 6.75 -21.867188 6.75 -18.359375 C 6.75 -14.804688 7.4375 -11.8125 8.8125 -9.375 C 10.1875 -6.945312 12.007812 -5.132812 14.28125 -3.9375 C 16.550781 -2.75 19.015625 -2.15625 21.671875 -2.15625 Z M 21.671875 -2.15625 "/></g></g></g><g fill="#373643" fill-opacity="1"><g transform="translate(115.564395, 73.077022)"><g><path d="M 3.640625 -18.359375 C 3.640625 -22.191406 4.394531 -25.523438 5.90625 -28.359375 C 7.414062 -31.191406 9.507812 -33.363281 12.1875 -34.875 C 14.863281 -36.382812 17.9375 -37.140625 21.40625 -37.140625 C 25.988281 -37.140625 29.753906 -35.988281 32.703125 -33.6875 C 35.660156 -31.394531 37.5 -28.3125 38.21875 -24.4375 L 35.046875 -24.4375 C 34.453125 -27.59375 32.925781 -30.066406 30.46875 -31.859375 C 28.019531 -33.660156 25 -34.5625 21.40625 -34.5625 C 18.695312 -34.5625 16.238281 -33.960938 14.03125 -32.765625 C 11.832031 -31.578125 10.066406 -29.753906 8.734375 -27.296875 C 7.410156 -24.847656 6.75 -21.867188 6.75 -18.359375 C 6.75 -14.804688 7.410156 -11.8125 8.734375 -9.375 C 10.066406 -6.945312 11.832031 -5.125 14.03125 -3.90625 C 16.238281 -2.695312 18.695312 -2.09375 21.40625 -2.09375 C 25 -2.09375 28.019531 -2.992188 30.46875 -4.796875 C 32.925781 -6.597656 34.453125 -9.070312 35.046875 -12.21875 L 38.21875 -12.21875 C 37.5 -8.394531 35.648438 -5.3125 32.671875 -2.96875 C 29.703125 -0.625 25.945312 0.546875 21.40625 0.546875 C 17.9375 0.546875 14.863281 -0.21875 12.1875 -1.75 C 9.507812 -3.28125 7.414062 -5.472656 5.90625 -8.328125 C 4.394531 -11.191406 3.640625 -14.535156 3.640625 -18.359375 Z M 3.640625 -18.359375 "/></g></g></g><g fill="#373643" fill-opacity="1"><g transform="translate(154.923112, 73.077022)"><g><path d="M 38.546875 -20.796875 C 38.546875 -19.171875 38.503906 -17.957031 38.421875 -17.15625 L 6.75 -17.15625 C 6.84375 -13.863281 7.5625 -11.09375 8.90625 -8.84375 C 10.257812 -6.59375 12.035156 -4.90625 14.234375 -3.78125 C 16.441406 -2.65625 18.851562 -2.09375 21.46875 -2.09375 C 25.070312 -2.09375 28.085938 -2.976562 30.515625 -4.75 C 32.941406 -6.53125 34.472656 -8.953125 35.109375 -12.015625 L 38.28125 -12.015625 C 37.5625 -8.273438 35.710938 -5.242188 32.734375 -2.921875 C 29.765625 -0.609375 26.007812 0.546875 21.46875 0.546875 C 18.050781 0.546875 14.988281 -0.21875 12.28125 -1.75 C 9.582031 -3.28125 7.46875 -5.472656 5.9375 -8.328125 C 4.40625 -11.191406 3.640625 -14.535156 3.640625 -18.359375 C 3.640625 -22.191406 4.394531 -25.523438 5.90625 -28.359375 C 7.414062 -31.191406 9.519531 -33.363281 12.21875 -34.875 C 14.914062 -36.382812 18 -37.140625 21.46875 -37.140625 C 24.976562 -37.140625 28.023438 -36.382812 30.609375 -34.875 C 33.203125 -33.363281 35.171875 -31.359375 36.515625 -28.859375 C 37.867188 -26.359375 38.546875 -23.671875 38.546875 -20.796875 Z M 35.515625 -19.640625 C 35.648438 -22.890625 35.078125 -25.640625 33.796875 -27.890625 C 32.515625 -30.140625 30.769531 -31.8125 28.5625 -32.90625 C 26.351562 -34.007812 23.96875 -34.5625 21.40625 -34.5625 C 18.832031 -34.5625 16.453125 -34.007812 14.265625 -32.90625 C 12.085938 -31.8125 10.3125 -30.140625 8.9375 -27.890625 C 7.570312 -25.640625 6.84375 -22.890625 6.75 -19.640625 Z M 35.515625 -19.640625 "/></g></g></g><g fill="#373643" fill-opacity="1"><g transform="translate(194.551859, 73.077022)"><g><path d="M 8.578125 -29.09375 C 9.472656 -31.800781 11.066406 -33.863281 13.359375 -35.28125 C 15.660156 -36.695312 18.585938 -37.40625 22.140625 -37.40625 L 22.140625 -34.234375 L 21.125 -34.234375 C 17.53125 -34.234375 14.539062 -33.207031 12.15625 -31.15625 C 9.769531 -29.113281 8.578125 -25.769531 8.578125 -21.125 L 8.578125 0 L 5.53125 0 L 5.53125 -36.65625 L 8.578125 -36.65625 Z M 8.578125 -29.09375 "/></g></g></g><g fill="#373643" fill-opacity="1"><g transform="translate(215.61486, 73.077022)"><g><path d="M 7.09375 -44.828125 C 6.375 -44.828125 5.765625 -45.0625 5.265625 -45.53125 C 4.773438 -46.007812 4.53125 -46.65625 4.53125 -47.46875 C 4.53125 -48.226562 4.773438 -48.851562 5.265625 -49.34375 C 5.765625 -49.84375 6.375 -50.09375 7.09375 -50.09375 C 7.8125 -50.09375 8.414062 -49.84375 8.90625 -49.34375 C 9.40625 -48.851562 9.65625 -48.226562 9.65625 -47.46875 C 9.65625 -46.65625 9.40625 -46.007812 8.90625 -45.53125 C 8.414062 -45.0625 7.8125 -44.828125 7.09375 -44.828125 Z M 8.578125 -36.65625 L 8.578125 0 L 5.53125 0 L 5.53125 -36.65625 Z M 8.578125 -36.65625 "/></g></g></g><g fill="#373643" fill-opacity="1"><g transform="translate(227.226219, 73.077022)"><g><path d="M 38.546875 -20.796875 C 38.546875 -19.171875 38.503906 -17.957031 38.421875 -17.15625 L 6.75 -17.15625 C 6.84375 -13.863281 7.5625 -11.09375 8.90625 -8.84375 C 10.257812 -6.59375 12.035156 -4.90625 14.234375 -3.78125 C 16.441406 -2.65625 18.851562 -2.09375 21.46875 -2.09375 C 25.070312 -2.09375 28.085938 -2.976562 30.515625 -4.75 C 32.941406 -6.53125 34.472656 -8.953125 35.109375 -12.015625 L 38.28125 -12.015625 C 37.5625 -8.273438 35.710938 -5.242188 32.734375 -2.921875 C 29.765625 -0.609375 26.007812 0.546875 21.46875 0.546875 C 18.050781 0.546875 14.988281 -0.21875 12.28125 -1.75 C 9.582031 -3.28125 7.46875 -5.472656 5.9375 -8.328125 C 4.40625 -11.191406 3.640625 -14.535156 3.640625 -18.359375 C 3.640625 -22.191406 4.394531 -25.523438 5.90625 -28.359375 C 7.414062 -31.191406 9.519531 -33.363281 12.21875 -34.875 C 14.914062 -36.382812 18 -37.140625 21.46875 -37.140625 C 24.976562 -37.140625 28.023438 -36.382812 30.609375 -34.875 C 33.203125 -33.363281 35.171875 -31.359375 36.515625 -28.859375 C 37.867188 -26.359375 38.546875 -23.671875 38.546875 -20.796875 Z M 35.515625 -19.640625 C 35.648438 -22.890625 35.078125 -25.640625 33.796875 -27.890625 C 32.515625 -30.140625 30.769531 -31.8125 28.5625 -32.90625 C 26.351562 -34.007812 23.96875 -34.5625 21.40625 -34.5625 C 18.832031 -34.5625 16.453125 -34.007812 14.265625 -32.90625 C 12.085938 -31.8125 10.3125 -30.140625 8.9375 -27.890625 C 7.570312 -25.640625 6.84375 -22.890625 6.75 -19.640625 Z M 35.515625 -19.640625 "/></g></g></g><g fill="#373643" fill-opacity="1"><g transform="translate(266.854966, 73.077022)"><g><path d="M 17.75 0.546875 C 13.65625 0.546875 10.3125 -0.351562 7.71875 -2.15625 C 5.132812 -3.957031 3.6875 -6.523438 3.375 -9.859375 L 6.484375 -9.859375 C 6.703125 -7.472656 7.789062 -5.582031 9.75 -4.1875 C 11.707031 -2.789062 14.375 -2.09375 17.75 -2.09375 C 20.539062 -2.09375 22.757812 -2.800781 24.40625 -4.21875 C 26.050781 -5.632812 26.875 -7.378906 26.875 -9.453125 C 26.875 -10.890625 26.429688 -12.066406 25.546875 -12.984375 C 24.671875 -13.910156 23.582031 -14.617188 22.28125 -15.109375 C 20.976562 -15.609375 19.203125 -16.15625 16.953125 -16.75 C 14.242188 -17.46875 12.054688 -18.175781 10.390625 -18.875 C 8.734375 -19.570312 7.316406 -20.617188 6.140625 -22.015625 C 4.972656 -23.410156 4.390625 -25.273438 4.390625 -27.609375 C 4.390625 -29.316406 4.90625 -30.898438 5.9375 -32.359375 C 6.976562 -33.828125 8.421875 -34.988281 10.265625 -35.84375 C 12.109375 -36.707031 14.203125 -37.140625 16.546875 -37.140625 C 20.367188 -37.140625 23.460938 -36.179688 25.828125 -34.265625 C 28.191406 -32.347656 29.460938 -29.703125 29.640625 -26.328125 L 26.59375 -26.328125 C 26.46875 -28.765625 25.523438 -30.742188 23.765625 -32.265625 C 22.003906 -33.796875 19.570312 -34.5625 16.46875 -34.5625 C 13.863281 -34.5625 11.703125 -33.882812 9.984375 -32.53125 C 8.273438 -31.1875 7.421875 -29.546875 7.421875 -27.609375 C 7.421875 -25.898438 7.90625 -24.515625 8.875 -23.453125 C 9.84375 -22.398438 11.035156 -21.59375 12.453125 -21.03125 C 13.867188 -20.46875 15.75 -19.867188 18.09375 -19.234375 C 20.65625 -18.566406 22.710938 -17.90625 24.265625 -17.25 C 25.816406 -16.59375 27.132812 -15.644531 28.21875 -14.40625 C 29.300781 -13.175781 29.84375 -11.523438 29.84375 -9.453125 C 29.84375 -7.554688 29.320312 -5.84375 28.28125 -4.3125 C 27.25 -2.789062 25.8125 -1.597656 23.96875 -0.734375 C 22.125 0.117188 20.050781 0.546875 17.75 0.546875 Z M 17.75 0.546875 "/></g></g></g><g fill="#373643" fill-opacity="1"><g transform="translate(297.842215, 73.077022)"><g/></g></g><g fill="#373643" fill-opacity="1"><g transform="translate(314.314436, 73.077022)"><g><path d="M 8.578125 -49.96875 L 8.578125 0 L 5.53125 0 L 5.53125 -49.96875 Z M 8.578125 -49.96875 "/></g></g></g><g fill="#373643" fill-opacity="1"><g transform="translate(325.925795, 73.077022)"><g><path d="M 7.09375 -44.828125 C 6.375 -44.828125 5.765625 -45.0625 5.265625 -45.53125 C 4.773438 -46.007812 4.53125 -46.65625 4.53125 -47.46875 C 4.53125 -48.226562 4.773438 -48.851562 5.265625 -49.34375 C 5.765625 -49.84375 6.375 -50.09375 7.09375 -50.09375 C 7.8125 -50.09375 8.414062 -49.84375 8.90625 -49.34375 C 9.40625 -48.851562 9.65625 -48.226562 9.65625 -47.46875 C 9.65625 -46.65625 9.40625 -46.007812 8.90625 -45.53125 C 8.414062 -45.0625 7.8125 -44.828125 7.09375 -44.828125 Z M 8.578125 -36.65625 L 8.578125 0 L 5.53125 0 L 5.53125 -36.65625 Z M 8.578125 -36.65625 "/></g></g></g><g fill="#373643" fill-opacity="1"><g transform="translate(337.537154, 73.077022)"><g><path d="M 48.875 -37.40625 C 53.0625 -37.40625 56.484375 -36.066406 59.140625 -33.390625 C 61.796875 -30.710938 63.125 -26.738281 63.125 -21.46875 L 63.125 0 L 60.15625 0 L 60.15625 -21.265625 C 60.15625 -25.628906 59.109375 -28.96875 57.015625 -31.28125 C 54.921875 -33.601562 52.050781 -34.765625 48.40625 -34.765625 C 44.625 -34.765625 41.582031 -33.457031 39.28125 -30.84375 C 36.988281 -28.238281 35.84375 -24.460938 35.84375 -19.515625 L 35.84375 0 L 32.875 0 L 32.875 -21.265625 C 32.875 -25.628906 31.828125 -28.96875 29.734375 -31.28125 C 27.640625 -33.601562 24.769531 -34.765625 21.125 -34.765625 C 17.351562 -34.765625 14.316406 -33.457031 12.015625 -30.84375 C 9.722656 -28.238281 8.578125 -24.460938 8.578125 -19.515625 L 8.578125 0 L 5.53125 0 L 5.53125 -36.65625 L 8.578125 -36.65625 L 8.578125 -28.6875 C 9.609375 -31.570312 11.28125 -33.742188 13.59375 -35.203125 C 15.914062 -36.671875 18.585938 -37.40625 21.609375 -37.40625 C 24.929688 -37.40625 27.796875 -36.535156 30.203125 -34.796875 C 32.617188 -33.066406 34.273438 -30.515625 35.171875 -27.140625 C 36.023438 -30.515625 37.691406 -33.066406 40.171875 -34.796875 C 42.648438 -36.535156 45.550781 -37.40625 48.875 -37.40625 Z M 48.875 -37.40625 "/></g></g></g><g fill="#373643" fill-opacity="1"><g transform="translate(403.360426, 73.077022)"><g><path d="M 7.09375 -44.828125 C 6.375 -44.828125 5.765625 -45.0625 5.265625 -45.53125 C 4.773438 -46.007812 4.53125 -46.65625 4.53125 -47.46875 C 4.53125 -48.226562 4.773438 -48.851562 5.265625 -49.34375 C 5.765625 -49.84375 6.375 -50.09375 7.09375 -50.09375 C 7.8125 -50.09375 8.414062 -49.84375 8.90625 -49.34375 C 9.40625 -48.851562 9.65625 -48.226562 9.65625 -47.46875 C 9.65625 -46.65625 9.40625 -46.007812 8.90625 -45.53125 C 8.414062 -45.0625 7.8125 -44.828125 7.09375 -44.828125 Z M 8.578125 -36.65625 L 8.578125 0 L 5.53125 0 L 5.53125 -36.65625 Z M 8.578125 -36.65625 "/></g></g></g><g fill="#373643" fill-opacity="1"><g transform="translate(414.971785, 73.077022)"><g><path d="M 10.0625 -34.03125 L 10.0625 -9.796875 C 10.0625 -7.085938 10.554688 -5.226562 11.546875 -4.21875 C 12.535156 -3.207031 14.289062 -2.703125 16.8125 -2.703125 L 20.9375 -2.703125 L 20.9375 0 L 16.34375 0 C 13.144531 0 10.789062 -0.753906 9.28125 -2.265625 C 7.769531 -3.773438 7.015625 -6.285156 7.015625 -9.796875 L 7.015625 -34.03125 L 1.484375 -34.03125 L 1.484375 -36.65625 L 7.015625 -36.65625 L 7.015625 -45.984375 L 10.0625 -45.984375 L 10.0625 -36.65625 L 20.9375 -36.65625 L 20.9375 -34.03125 Z M 10.0625 -34.03125 "/></g></g></g><g fill="#373643" fill-opacity="1"><g transform="translate(435.832263, 73.077022)"><g><path d="M 38.546875 -20.796875 C 38.546875 -19.171875 38.503906 -17.957031 38.421875 -17.15625 L 6.75 -17.15625 C 6.84375 -13.863281 7.5625 -11.09375 8.90625 -8.84375 C 10.257812 -6.59375 12.035156 -4.90625 14.234375 -3.78125 C 16.441406 -2.65625 18.851562 -2.09375 21.46875 -2.09375 C 25.070312 -2.09375 28.085938 -2.976562 30.515625 -4.75 C 32.941406 -6.53125 34.472656 -8.953125 35.109375 -12.015625 L 38.28125 -12.015625 C 37.5625 -8.273438 35.710938 -5.242188 32.734375 -2.921875 C 29.765625 -0.609375 26.007812 0.546875 21.46875 0.546875 C 18.050781 0.546875 14.988281 -0.21875 12.28125 -1.75 C 9.582031 -3.28125 7.46875 -5.472656 5.9375 -8.328125 C 4.40625 -11.191406 3.640625 -14.535156 3.640625 -18.359375 C 3.640625 -22.191406 4.394531 -25.523438 5.90625 -28.359375 C 7.414062 -31.191406 9.519531 -33.363281 12.21875 -34.875 C 14.914062 -36.382812 18 -37.140625 21.46875 -37.140625 C 24.976562 -37.140625 28.023438 -36.382812 30.609375 -34.875 C 33.203125 -33.363281 35.171875 -31.359375 36.515625 -28.859375 C 37.867188 -26.359375 38.546875 -23.671875 38.546875 -20.796875 Z M 35.515625 -19.640625 C 35.648438 -22.890625 35.078125 -25.640625 33.796875 -27.890625 C 32.515625 -30.140625 30.769531 -31.8125 28.5625 -32.90625 C 26.351562 -34.007812 23.96875 -34.5625 21.40625 -34.5625 C 18.832031 -34.5625 16.453125 -34.007812 14.265625 -32.90625 C 12.085938 -31.8125 10.3125 -30.140625 8.9375 -27.890625 C 7.570312 -25.640625 6.84375 -22.890625 6.75 -19.640625 Z M 35.515625 -19.640625 "/></g></g></g><g fill="#373643" fill-opacity="1"><g transform="translate(475.46101, 73.077022)"><g><path d="M 3.640625 -18.359375 C 3.640625 -22.140625 4.394531 -25.445312 5.90625 -28.28125 C 7.414062 -31.125 9.507812 -33.3125 12.1875 -34.84375 C 14.863281 -36.375 17.910156 -37.140625 21.328125 -37.140625 C 25.066406 -37.140625 28.304688 -36.203125 31.046875 -34.328125 C 33.796875 -32.460938 35.734375 -30.046875 36.859375 -27.078125 L 36.859375 -49.96875 L 39.90625 -49.96875 L 39.90625 0 L 36.859375 0 L 36.859375 -9.71875 C 35.785156 -6.707031 33.894531 -4.242188 31.1875 -2.328125 C 28.488281 -0.410156 25.203125 0.546875 21.328125 0.546875 C 17.910156 0.546875 14.863281 -0.226562 12.1875 -1.78125 C 9.507812 -3.34375 7.414062 -5.550781 5.90625 -8.40625 C 4.394531 -11.257812 3.640625 -14.578125 3.640625 -18.359375 Z M 36.859375 -18.359375 C 36.859375 -21.554688 36.191406 -24.378906 34.859375 -26.828125 C 33.535156 -29.285156 31.726562 -31.175781 29.4375 -32.5 C 27.144531 -33.832031 24.578125 -34.5 21.734375 -34.5 C 18.765625 -34.5 16.15625 -33.859375 13.90625 -32.578125 C 11.65625 -31.296875 9.898438 -29.4375 8.640625 -27 C 7.378906 -24.570312 6.75 -21.691406 6.75 -18.359375 C 6.75 -15.035156 7.378906 -12.15625 8.640625 -9.71875 C 9.898438 -7.289062 11.664062 -5.421875 13.9375 -4.109375 C 16.207031 -2.804688 18.804688 -2.15625 21.734375 -2.15625 C 24.578125 -2.15625 27.15625 -2.816406 29.46875 -4.140625 C 31.789062 -5.472656 33.601562 -7.363281 34.90625 -9.8125 C 36.207031 -12.269531 36.859375 -15.117188 36.859375 -18.359375 Z M 36.859375 -18.359375 "/></g></g></g></g></g></svg>